PathFileType	4	(X/Y/Z)	/Users/itak/Documents/Research/Walk-IL/dataset/trc/00140_00007.trc
DataRate	CameraRate	NumFrames	NumMarkers	Units	OrigDataRate	OrigDataStartFrame	OrigNumFrames
100.000000	100.000000	4	53	mm	100.000000	201	536
Frame#	Time	RPSI			LPSI			L3			STRN			T10			C7			CLAV			RBAK			LBAK			LSHO			LUPA			LAEL			LAOL			LWTS			LWPS			LFRA			LIFD			LHPS			LHTS			RSHO			RUPA			RAEL			RAOL			RWTS			RWPS			RFRA			RIFD			RHTS			RHPS			RBHD			LFHD			RFHD			LBHD			LHIP			RHIP			RASI			LASI			LKNE			LTHI			LANK			LTIP			LTOE			LMT1			LMT5			LHEE			RKNE			RTHI			RANK			RTIP			RTOE			RMT1			RMT5			RHEE			
		X1	Y1	Z1	X2	Y2	Z2	X3	Y3	Z3	X4	Y4	Z4	X5	Y5	Z5	X6	Y6	Z6	X7	Y7	Z7	X8	Y8	Z8	X9	Y9	Z9	X10	Y10	Z10	X11	Y11	Z11	X12	Y12	Z12	X13	Y13	Z13	X14	Y14	Z14	X15	Y15	Z15	X16	Y16	Z16	X17	Y17	Z17	X18	Y18	Z18	X19	Y19	Z19	X20	Y20	Z20	X21	Y21	Z21	X22	Y22	Z22	X23	Y23	Z23	X24	Y24	Z24	X25	Y25	Z25	X26	Y26	Z26	X27	Y27	Z27	X28	Y28	Z28	X29	Y29	Z29	X30	Y30	Z30	X31	Y31	Z31	X32	Y32	Z32	X33	Y33	Z33	X34	Y34	Z34	X35	Y35	Z35	X36	Y36	Z36	X37	Y37	Z37	X38	Y38	Z38	X39	Y39	Z39	X40	Y40	Z40	X41	Y41	Z41	X42	Y42	Z42	X43	Y43	Z43	X44	Y44	Z44	X45	Y45	Z45	X46	Y46	Z46	X47	Y47	Z47	X48	Y48	Z48	X49	Y49	Z49	X50	Y50	Z50	X51	Y51	Z51	X52	Y52	Z52	X53	Y53	Z53	

202	2.01	-540.235107421875	1112.607543945312	1215.906616210938	-539.9512939453125	1120.739868164062	1079.965576171875	-546.8939819335938	1154.652954101562	1149.335327148438	-312.0516662597656	1339.822631835938	1147.783081054688	-566.1925048828125	1305.5625	1162.722534179688	-519.0444946289062	1595.746459960938	1140.373046875	-340.9259643554688	1476.286987304688	1138.348510742188	-578.8764038085938	1418.245361328125	1237.591796875	-533.922607421875	1573.581420898438	1040.314575195312	-455.3971557617188	1550.644653320312	965.3883056640625	-496.2576293945312	1420.087524414062	901.9765014648438	-515.1768798828125	1202.601806640625	885.05859375	-571.5894775390625	1199.730712890625	954.145263671875	-445.0726623535156	932.75146484375	916.6792602539062	-533.7318115234375	919.0503540039062	903.6895141601562	-515.7833862304688	1084.9658203125	880.9957885742188	-456.6531372070312	737.4068603515625	934.3673706054688	-516.7114868164062	840.827392578125	901.0653076171875	-446.4158630371094	842.762939453125	907.6129760742188	-449.8307189941406	1578.029907226562	1316.822998046875	-464.46630859375	1508.160522460938	1385.198364257812	-478.416748046875	1215.496704101562	1421.502563476562	-501.3984680175781	1211.523071289062	1328.70458984375	-345.2727966308594	966.2796020507812	1391.537353515625	-413.6207885742188	953.6932983398438	1436.694580078125	-453.7254638671875	1141.2470703125	1435.5380859375	-324.5132141113281	770.9052734375	1384.01220703125	-317.8426208496094	858.9367065429688	1397.993286132812	-378.6929321289062	853.4640502929688	1437.268676757812	-445.897216796875	1769.488037109375	1212.433715820312	-337.8323364257812	1812.31591796875	1024.659912109375	-293.541748046875	1831.685424804688	1145.76123046875	-499.4644775390625	1754.288330078125	1089.15185546875	-439.0798950195312	1033.8369140625	968.359619140625	-421.5462341308594	1004.956298828125	1332.505249023438	-334.3482971191406	1076.489013671875	1287.124267578125	-337.1088562011719	1090.139404296875	1022.433715820312	-291.1302490234375	545.409912109375	1032.078979492188	-352.7680053710938	677.7547607421875	990.3148803710938	-280.1964416503906	35.98554229736328	1078.2353515625	-324.747802734375	281.7266540527344	1025.859130859375	-52.51958847045898	59.56275177001953	1110.151123046875	-123.0586624145508	54.07510757446289	1153.445556640625	-160.6300354003906	44.73843383789062	1043.730590820312	-343.1056518554688	37.13247299194336	1145.937622070312	-495.7251892089844	514.74560546875	1289.832885742188	-425.359130859375	790.446044921875	1315.78369140625	-827.2150268554688	92.12150573730469	1272.77685546875	-581.317626953125	401.3489379882812	1301.826904296875	-607.3248291015625	44.28971481323242	1223.078125	-664.8211059570312	44.20555877685547	1180.564575195312	-704.25634765625	44.58990478515625	1294.666259765625	-877.3513793945312	125.3241500854492	1225.539428710938	
203	2.02	-531.1143188476562	1114.262573242188	1214.189697265625	-531.2408447265625	1122.356811523438	1078.234252929688	-538.0615234375	1156.143310546875	1147.49072265625	-303.4936828613281	1341.874877929688	1145.191650390625	-557.5197143554688	1306.925659179688	1160.912719726562	-511.3976135253906	1597.199096679688	1138.342041015625	-332.8434448242188	1478.261840820312	1135.907104492188	-570.2117919921875	1419.565673828125	1235.783569335938	-526.5355834960938	1575.02392578125	1038.403564453125	-447.9104309082031	1552.509887695312	963.2459106445312	-488.40869140625	1421.896362304688	899.77294921875	-506.2261962890625	1204.311157226562	882.8399658203125	-562.4371948242188	1200.90087890625	951.9507446289062	-434.1393737792969	934.9854125976562	914.3092651367188	-522.63427734375	920.6244506835938	901.40869140625	-506.022705078125	1086.67236328125	878.7257080078125	-444.1768493652344	739.5462036132812	932.1287231445312	-505.0158081054688	842.493896484375	898.8329467773438	-434.7851257324219	844.9701538085938	905.2498168945312	-441.6411437988281	1579.888793945312	1314.52001953125	-456.0173950195312	1510.16015625	1383.036743164062	-470.52783203125	1217.658325195312	1419.307006835938	-493.198974609375	1213.626708984375	1326.482055664062	-337.4662170410156	968.21728515625	1389.755004882812	-405.856689453125	955.7267456054688	1434.805053710938	-445.8260803222656	1143.357299804688	1433.505981445312	-316.8879699707031	772.798095703125	1382.099487304688	-310.1954650878906	860.815185546875	1396.184448242188	-371.0942687988281	855.3804931640625	1435.33984375	-437.8913879394531	1771.402587890625	1210.2919921875	-330.7940979003906	1813.9091796875	1021.9072265625	-285.8735961914062	1833.295776367188	1142.755737304688	-492.17626953125	1756.168334960938	1087.276733398438	-431.0595397949219	1035.265258789062	966.3693237304688	-411.8497619628906	1006.682434082031	1330.170043945312	-324.986328125	1078.416625976562	1284.3740234375	-328.7620239257812	1091.97265625	1019.764343261719	-286.2758178710938	545.7966918945312	1031.11865234375	-346.6114501953125	678.6187133789062	989.0938110351562	-279.9790649414062	36.05199432373047	1078.113037109375	-321.8847961425781	282.1607666015625	1024.829223632812	-52.00067138671875	58.5211296081543	1110.721069335938	-122.9546585083008	53.74309539794922	1153.8359375	-160.2316284179688	44.84639358520508	1043.958251953125	-343.1795654296875	37.27306747436523	1145.619262695312	-481.176513671875	515.2642822265625	1289.818359375	-413.8213806152344	791.88671875	1314.046752929688	-822.701171875	99.08889770507812	1275.087768554688	-569.0659790039062	403.4415893554688	1302.532348632812	-607.3674926757812	44.16371154785156	1223.68017578125	-664.120849609375	45.44161224365234	1180.7265625	-702.654296875	45.07181549072266	1295.0693359375	-871.194091796875	135.0384674072266	1228.091064453125	
204	2.03	-522.109619140625	1115.786987304688	1212.402587890625	-522.5545654296875	1123.794921875	1076.42919921875	-529.280517578125	1157.487670898438	1145.55615234375	-294.9389953613281	1343.781982421875	1142.564575195312	-548.85205078125	1308.159790039062	1158.981689453125	-503.7544250488281	1598.523071289062	1136.26025390625	-324.7655029296875	1480.09375	1133.430786132812	-561.5770263671875	1420.76904296875	1233.8583984375	-519.1740112304688	1576.34912109375	1036.455810546875	-440.40283203125	1554.255126953125	961.0620727539062	-480.5396423339844	1423.60302734375	897.4940185546875	-497.3209838867188	1205.933227539062	880.5017700195312	-553.3501586914062	1202.014892578125	949.6301879882812	-423.0086669921875	937.2234497070312	911.811279296875	-511.3216552734375	922.1115112304688	898.9910278320312	-496.2191772460938	1088.29052734375	876.3245239257812	-431.2640686035156	741.7102661132812	929.7412109375	-493.0042419433594	844.0982666015625	896.4568481445312	-422.8460693359375	847.1979370117188	902.7432861328125	-433.4784545898438	1581.59326171875	1312.172485351562	-447.6071166992188	1512.006103515625	1380.8203125	-462.6894226074219	1219.668701171875	1417.145263671875	-485.0966796875	1215.513427734375	1324.211791992188	-329.5681762695312	970.0999145507812	1387.91845703125	-397.974609375	957.639892578125	1432.896850585938	-437.937744140625	1145.324951171875	1431.505737304688	-309.0097045898438	774.6650390625	1380.013305664062	-302.3656005859375	862.6627807617188	1394.244995117188	-363.2820739746094	857.1924438476562	1433.319702148438	-429.9415283203125	1773.162963867188	1208.157958984375	-323.8147583007812	1815.410522460938	1019.177734375	-278.2779235839844	1834.78662109375	1139.777465820312	-484.9395446777344	1757.919799804688	1085.405883789062	-423.2040710449219	1036.472412109375	964.4254150390625	-402.2771301269531	1008.296875	1327.81298828125	-315.752197265625	1080.250244140625	1281.637329101562	-320.4469909667969	1093.586059570312	1017.12548828125	-281.8123474121094	545.9307250976562	1030.05322265625	-340.8328857421875	679.238037109375	987.8134155273438	-279.7605285644531	36.13550186157227	1078.072631835938	-319.2898559570312	282.4385375976562	1023.936279296875	-51.46915054321289	57.45566940307617	1111.301025390625	-122.8164825439453	53.34716033935547	1154.261962890625	-159.8633422851562	44.9563102722168	1044.201293945312	-343.2125549316406	37.41428756713867	1145.4013671875	-465.8981018066406	515.654296875	1289.900024414062	-402.1535034179688	793.2433471679688	1312.367309570312	-817.1279907226562	106.5473480224609	1277.8798828125	-555.8384399414062	405.3241577148438	1303.334228515625	-607.2813720703125	44.09244918823242	1224.298828125	-663.2007446289062	46.77695465087891	1180.917846679688	-700.6524047851562	45.67473220825195	1295.574340820312	-864.0468139648438	144.9011535644531	1231.038330078125	
205	2.04	-513.25732421875	1117.095703125	1210.567504882812	-513.9071044921875	1125.019409179688	1074.57666015625	-520.568359375	1158.633056640625	1143.558471679688	-286.4120788574219	1345.485961914062	1139.93212890625	-540.2439575195312	1309.225830078125	1156.924682617188	-496.1149597167969	1599.677001953125	1134.125	-316.7047424316406	1481.724487304688	1130.93798828125	-553.0130615234375	1421.81103515625	1231.808471679688	-511.8258361816406	1577.515014648438	1034.47314453125	-432.8623352050781	1555.817016601562	958.8410034179688	-472.6421203613281	1425.144897460938	895.1448974609375	-488.4634094238281	1207.402709960938	878.041259765625	-544.3391723632812	1203.009399414062	947.1792602539062	-411.6911010742188	939.4095458984375	909.1829223632812	-499.8058776855469	923.453369140625	896.4317626953125	-486.3799438476562	1089.757080078125	873.7921752929688	-417.9135131835938	743.8505859375	927.1890258789062	-480.6819458007812	845.5912475585938	893.927001953125	-410.6139221191406	849.3906860351562	900.0891723632812	-425.3694458007812	1583.081298828125	1309.793701171875	-439.2703247070312	1513.62255859375	1378.553100585938	-454.8807067871094	1221.44775390625	1415.032348632812	-477.102294921875	1217.117309570312	1321.925415039062	-321.574951171875	971.8587646484375	1386.030639648438	-389.9627380371094	959.365966796875	1430.98681640625	-430.0457763671875	1147.081665039062	1429.53955078125	-300.8691101074219	776.439453125	1377.798706054688	-294.33447265625	864.4163208007812	1392.19677734375	-355.2377319335938	858.8441772460938	1431.2431640625	-422.0551452636719	1774.714233398438	1206.037963867188	-316.9070434570312	1816.782836914062	1016.477355957031	-270.76806640625	1836.12939453125	1136.831298828125	-477.7542114257812	1759.482421875	1083.548706054688	-415.4767456054688	1037.463134765625	962.5214233398438	-392.8620300292969	1009.7138671875	1325.45166015625	-306.6746826171875	1081.923950195312	1278.940673828125	-312.1552429199219	1094.945434570312	1014.538879394531	-277.7369689941406	545.8115844726562	1028.833374023438	-335.45947265625	679.6238403320312	986.4539184570312	-279.5446472167969	36.2243766784668	1078.1005859375	-317.009033203125	282.559326171875	1023.168151855469	-50.92049026489258	56.35475540161133	1111.838623046875	-122.628776550293	52.89748764038086	1154.69140625	-159.5259246826172	45.02714157104492	1044.4306640625	-343.1991577148438	37.56204605102539	1145.278930664062	-449.9622497558594	515.8824462890625	1290.014282226562	-390.4264221191406	794.45703125	1310.748901367188	-810.396484375	114.3700637817383	1281.13232421875	-541.6415405273438	406.9098815917969	1304.162963867188	-606.8320922851562	44.1221809387207	1224.977783203125	-661.8697509765625	48.25277328491211	1181.181762695312	-698.0745849609375	46.45646286010742	1296.2119140625	-855.8623657226562	154.7509002685547	1234.38818359375	
